<svg width="250" height="250" viewBox="0 0 250 250" fill="none" xmlns="http://www.w3.org/2000/svg">
<path d="M0 0H10V10H0V0ZM10 0H20V10H10V0ZM20 0H30V10H20V0ZM30 0H40V10H30V0ZM40 0H50V10H40V0ZM50 0H60V10H50V0ZM60 0H70V10H60V0ZM90 0H100V10H90V0ZM130 0H140V10H130V0ZM180 0H190V10H180V0ZM190 0H200V10H190V0ZM200 0H210V10H200V0ZM210 0H220V10H210V0ZM220 0H230V10H220V0ZM230 0H240V10H230V0ZM240 0H250V10H240V0ZM0 10H10V20H0V10ZM60 10H70V20H60V10ZM80 10H90V20H80V10ZM90 10H100V20H90V10ZM110 10H120V20H110V10ZM120 10H130V20H120V10ZM130 10H140V20H130V10ZM140 10H150V20H140V10ZM150 10H160V20H150V10ZM180 10H190V20H180V10ZM240 10H250V20H240V10ZM0 20H10V30H0V20ZM20 20H30V30H20V20ZM30 20H40V30H30V20ZM40 20H50V30H40V20ZM60 20H70V30H60V20ZM90 20H100V30H90V20ZM100 20H110V30H100V20ZM110 20H120V30H110V20ZM140 20H150V30H140V20ZM180 20H190V30H180V20ZM200 20H210V30H200V20ZM210 20H220V30H210V20ZM220 20H230V30H220V20ZM240 20H250V30H240V20ZM0 30H10V40H0V30ZM20 30H30V40H20V30ZM30 30H40V40H30V30ZM40 30H50V40H40V30ZM60 30H70V40H60V30ZM80 30H90V40H80V30ZM90 30H100V40H90V30ZM110 30H120V40H110V30ZM130 30H140V40H130V30ZM140 30H150V40H140V30ZM150 30H160V40H150V30ZM160 30H170V40H160V30ZM180 30H190V40H180V30ZM200 30H210V40H200V30ZM210 30H220V40H210V30ZM220 30H230V40H220V30ZM240 30H250V40H240V30ZM0 40H10V50H0V40ZM20 40H30V50H20V40ZM30 40H40V50H30V40ZM40 40H50V50H40V40ZM60 40H70V50H60V40ZM100 40H110V50H100V40ZM120 40H130V50H120V40ZM160 40H170V50H160V40ZM180 40H190V50H180V40ZM200 40H210V50H200V40ZM210 40H220V50H210V40ZM220 40H230V50H220V40ZM240 40H250V50H240V40ZM0 50H10V60H0V50ZM60 50H70V60H60V50ZM80 50H90V60H80V50ZM100 50H110V60H100V50ZM140 50H150V60H140V50ZM150 50H160V60H150V50ZM180 50H190V60H180V50ZM240 50H250V60H240V50ZM0 60H10V70H0V60ZM10 60H20V70H10V60ZM20 60H30V70H20V60ZM30 60H40V70H30V60ZM40 60H50V70H40V60ZM50 60H60V70H50V60ZM60 60H70V70H60V60ZM80 60H90V70H80V60ZM100 60H110V70H100V60ZM120 60H130V70H120V60ZM140 60H150V70H140V60ZM160 60H170V70H160V60ZM180 60H190V70H180V60ZM190 60H200V70H190V60ZM200 60H210V70H200V60ZM210 60H220V70H210V60ZM220 60H230V70H220V60ZM230 60H240V70H230V60ZM240 60H250V70H240V60ZM120 70H130V80H120V70ZM140 70H150V80H140V70ZM0 80H10V90H0V80ZM10 80H20V90H10V80ZM20 80H30V90H20V80ZM30 80H40V90H30V80ZM40 80H50V90H40V80ZM60 80H70V90H60V80ZM70 80H80V90H70V80ZM80 80H90V90H80V80ZM90 80H100V90H90V80ZM100 80H110V90H100V80ZM120 80H130V90H120V80ZM130 80H140V90H130V80ZM140 80H150V90H140V80ZM150 80H160V90H150V80ZM170 80H180V90H170V80ZM190 80H200V90H190V80ZM210 80H220V90H210V80ZM230 80H240V90H230V80ZM30 90H40V100H30V90ZM40 90H50V100H40V90ZM50 90H60V100H50V90ZM70 90H80V100H70V90ZM90 90H100V100H90V90ZM130 90H140V100H130V90ZM140 90H150V100H140V90ZM160 90H170V100H160V90ZM170 90H180V100H170V90ZM190 90H200V100H190V90ZM210 90H220V100H210V90ZM40 100H50V110H40V100ZM50 100H60V110H50V100ZM60 100H70V110H60V100ZM80 100H90V110H80V100ZM90 100H100V110H90V100ZM110 100H120V110H110V100ZM120 100H130V110H120V100ZM150 100H160V110H150V100ZM170 100H180V110H170V100ZM180 100H190V110H180V100ZM190 100H200V110H190V100ZM220 100H230V110H220V100ZM230 100H240V110H230V100ZM240 100H250V110H240V100ZM0 110H10V120H0V110ZM10 110H20V120H10V110ZM20 110H30V120H20V110ZM50 110H60V120H50V110ZM90 110H100V120H90V110ZM100 110H110V120H100V110ZM110 110H120V120H110V110ZM160 110H170V120H160V110ZM180 110H190V120H180V110ZM230 110H240V120H230V110ZM10 120H20V130H10V120ZM40 120H50V130H40V120ZM60 120H70V130H60V120ZM70 120H80V130H70V120ZM90 120H100V130H90V120ZM110 120H120V130H110V120ZM120 120H130V130H120V120ZM130 120H140V130H130V120ZM140 120H150V130H140V120ZM180 120H190V130H180V120ZM200 120H210V130H200V120ZM210 120H220V130H210V120ZM220 120H230V130H220V120ZM230 120H240V130H230V120ZM0 130H10V140H0V130ZM10 130H20V140H10V130ZM40 130H50V140H40V130ZM70 130H80V140H70V130ZM90 130H100V140H90V130ZM100 130H110V140H100V130ZM120 130H130V140H120V130ZM140 130H150V140H140V130ZM190 130H200V140H190V130ZM210 130H220V140H210V130ZM220 130H230V140H220V130ZM0 140H10V150H0V140ZM20 140H30V150H20V140ZM50 140H60V150H50V140ZM60 140H70V150H60V140ZM70 140H80V150H70V140ZM80 140H90V150H80V140ZM90 140H100V150H90V140ZM100 140H110V150H100V140ZM120 140H130V150H120V140ZM150 140H160V150H150V140ZM160 140H170V150H160V140ZM170 140H180V150H170V140ZM190 140H200V150H190V140ZM220 140H230V150H220V140ZM230 140H240V150H230V140ZM240 140H250V150H240V140ZM0 150H10V160H0V150ZM40 150H50V160H40V150ZM80 150H90V160H80V150ZM90 150H100V160H90V150ZM100 150H110V160H100V150ZM110 150H120V160H110V150ZM120 150H130V160H120V150ZM150 150H160V160H150V150ZM160 150H170V160H160V150ZM190 150H200V160H190V150ZM0 160H10V170H0V160ZM40 160H50V170H40V160ZM50 160H60V170H50V160ZM60 160H70V170H60V160ZM70 160H80V170H70V160ZM100 160H110V170H100V160ZM130 160H140V170H130V160ZM140 160H150V170H140V160ZM160 160H170V170H160V160ZM170 160H180V170H170V160ZM180 160H190V170H180V160ZM190 160H200V170H190V160ZM200 160H210V170H200V160ZM210 160H220V170H210V160ZM220 160H230V170H220V160ZM240 160H250V170H240V160ZM80 170H90V180H80V170ZM90 170H100V180H90V170ZM100 170H110V180H100V170ZM110 170H120V180H110V170ZM130 170H140V180H130V170ZM150 170H160V180H150V170ZM160 170H170V180H160V170ZM200 170H210V180H200V170ZM230 170H240V180H230V170ZM0 180H10V190H0V180ZM10 180H20V190H10V180ZM20 180H30V190H20V180ZM30 180H40V190H30V180ZM40 180H50V190H40V180ZM50 180H60V190H50V180ZM60 180H70V190H60V180ZM80 180H90V190H80V180ZM90 180H100V190H90V180ZM140 180H150V190H140V180ZM160 180H170V190H160V180ZM180 180H190V190H180V180ZM200 180H210V190H200V180ZM230 180H240V190H230V180ZM240 180H250V190H240V180ZM0 190H10V200H0V190ZM60 190H70V200H60V190ZM90 190H100V200H90V190ZM160 190H170V200H160V190ZM200 190H210V200H200V190ZM0 200H10V210H0V200ZM20 200H30V210H20V200ZM30 200H40V210H30V200ZM40 200H50V210H40V200ZM60 200H70V210H60V200ZM80 200H90V210H80V200ZM100 200H110V210H100V200ZM120 200H130V210H120V200ZM130 200H140V210H130V200ZM140 200H150V210H140V200ZM150 200H160V210H150V200ZM160 200H170V210H160V200ZM170 200H180V210H170V200ZM180 200H190V210H180V200ZM190 200H200V210H190V200ZM200 200H210V210H200V200ZM220 200H230V210H220V200ZM0 210H10V220H0V210ZM20 210H30V220H20V210ZM30 210H40V220H30V210ZM40 210H50V220H40V210ZM60 210H70V220H60V210ZM80 210H90V220H80V210ZM110 210H120V220H110V210ZM130 210H140V220H130V210ZM160 210H170V220H160V210ZM170 210H180V220H170V210ZM180 210H190V220H180V210ZM200 210H210V220H200V210ZM230 210H240V220H230V210ZM240 210H250V220H240V210ZM0 220H10V230H0V220ZM20 220H30V230H20V220ZM30 220H40V230H30V220ZM40 220H50V230H40V220ZM60 220H70V230H60V220ZM80 220H90V230H80V220ZM90 220H100V230H90V220ZM120 220H130V230H120V220ZM130 220H140V230H130V220ZM140 220H150V230H140V220ZM160 220H170V230H160V220ZM190 220H200V230H190V220ZM210 220H220V230H210V220ZM240 220H250V230H240V220ZM0 230H10V240H0V230ZM60 230H70V240H60V230ZM80 230H90V240H80V230ZM90 230H100V240H90V230ZM110 230H120V240H110V230ZM120 230H130V240H120V230ZM140 230H150V240H140V230ZM150 230H160V240H150V230ZM160 230H170V240H160V230ZM180 230H190V240H180V230ZM190 230H200V240H190V230ZM200 230H210V240H200V230ZM240 230H250V240H240V230ZM0 240H10V250H0V240ZM10 240H20V250H10V240ZM20 240H30V250H20V240ZM30 240H40V250H30V240ZM40 240H50V250H40V240ZM50 240H60V250H50V240ZM60 240H70V250H60V240ZM80 240H90V250H80V240ZM100 240H110V250H100V240ZM130 240H140V250H130V240ZM140 240H150V250H140V240ZM170 240H180V250H170V240ZM220 240H230V250H220V240ZM230 240H240V250H230V240ZM240 240H250V250H240V240Z" fill="#76797B"/>
</svg>
